<?xml version="1.0" encoding="UTF-8" standalone="no"?>
<svg
   xmlns:dc="http://purl.org/dc/elements/1.1/"
   xmlns:cc="http://creativecommons.org/ns#"
   xmlns:rdf="http://www.w3.org/1999/02/22-rdf-syntax-ns#"
   xmlns:svg="http://www.w3.org/2000/svg"
   xmlns="http://www.w3.org/2000/svg"
   id="svg867"
   version="1.1"
   fill="none"
   viewBox="0 0 235 58"
   height="58"
   width="235">
  <metadata
     id="metadata873">
    <rdf:RDF>
      <cc:Work
         rdf:about="">
        <dc:format>image/svg+xml</dc:format>
        <dc:type
           rdf:resource="http://purl.org/dc/dcmitype/StillImage" />
        <dc:title></dc:title>
      </cc:Work>
    </rdf:RDF>
  </metadata>
  <defs
     id="defs871" />
  <path
     style="fill:#e31e2f;fill-opacity:1"
     id="rect845"
     d="M 0 0 L 0 58 L 213 58 L 235 0 L 213 0 L 0 0 z " />
  <path
     id="path847"
     fill="white"
     d="M189.59 37.6958C189.59 34.8963 188.622 33.502 186.694 33.502H184.329V41.8463H186.789C188.66 41.8463 189.59 40.4628 189.59 37.6958ZM193.968 38.1281C193.968 41.4248 191.727 43.0677 187.245 43.0677H177.805V41.8463C179.239 41.8463 179.96 41.0681 179.96 39.5224V27.5139C179.96 25.9683 179.239 25.2009 177.805 25.2009V23.9795H186.789V25.2009C185.896 25.2009 185.279 25.3306 184.946 25.59C184.538 25.9143 184.329 26.5952 184.329 27.6437V32.5832H186.323C188.375 32.5832 190.046 32.9291 191.357 33.6317C193.095 34.5612 193.968 36.0637 193.968 38.1281ZM202.867 43.0677H194.158V41.8463C195.412 41.8463 196.039 41.0681 196.039 39.5224V27.5139C196.039 25.9683 195.279 25.2009 193.769 25.2009V23.9795H202.867V25.2009C201.946 25.2009 201.338 25.3306 201.025 25.59C200.616 25.9143 200.417 26.5952 200.417 27.6437V39.3927C200.417 40.4412 200.616 41.1329 201.025 41.4464C201.338 41.7166 201.946 41.8463 202.867 41.8463V43.0677Z" />
  <path
     id="path849"
     fill="white"
     d="M177.054 29.6973H176.019C175.335 27.8382 174.424 26.6168 173.294 26.0548C172.173 25.4819 170.967 25.2009 169.694 25.2009V39.5224C169.694 41.0681 170.53 41.8463 172.22 41.8463V43.0677H162.78V41.8463C164.471 41.8463 165.316 41.0681 165.316 39.5224V25.2009C164.034 25.2009 162.828 25.4819 161.707 26.0548C160.577 26.6168 159.675 27.8382 158.982 29.6973H157.947L158.982 23.9795H176.057L177.054 29.6973Z" />
  <path
     id="path851"
     fill="white"
     d="M157.624 25.0712C156.418 25.6765 155.411 26.7681 154.585 28.3462C154.252 29.0164 153.692 30.4863 152.904 32.7562L147.718 47.6938C146.313 51.7471 144.47 53.7684 142.191 53.7684C141.526 53.7684 140.9 53.5414 140.311 53.0874C139.722 52.6442 139.428 52.0498 139.428 51.3256C139.428 50.7095 139.656 50.2231 140.102 49.8556C140.548 49.4989 141.052 49.3152 141.612 49.3152C141.973 49.3152 142.448 49.4773 143.036 49.7907C143.625 50.115 144.081 50.2771 144.413 50.2771C145.316 50.2771 146.085 49.2827 146.721 47.3047L147.718 44.1702L141.963 28.9083C141.735 28.2381 141.336 27.2978 140.776 26.0764C140.358 25.4279 139.713 25.0928 138.81 25.0712V23.9795H148.792V25.0712C147.158 25.1901 146.341 25.7413 146.341 26.7249C146.341 27.4275 146.512 28.2489 146.864 29.1785L150.026 37.4688L152.457 30.8322C152.78 29.9783 152.942 29.038 152.942 27.9895C152.942 26.3898 152.296 25.4171 151.023 25.0712V23.9795H157.624V25.0712Z" />
  <path
     id="path853"
     fill="white"
     d="M135.154 34.1071C135.154 31.9562 134.822 30.162 134.157 28.7352C133.331 26.8977 132.058 25.9898 130.32 25.9898C129.218 25.9898 128.06 26.5194 126.863 27.6003V40.4411C128.06 41.7273 129.218 42.365 130.32 42.365C131.65 42.365 132.789 41.6733 133.729 40.2897C134.679 38.9062 135.154 36.8526 135.154 34.1071ZM139.988 33.4802C139.988 36.3986 139.114 38.8089 137.376 40.7221C135.638 42.6352 133.473 43.5864 130.89 43.5864C129.513 43.5864 128.164 43.2729 126.863 42.6244V50.223C126.863 51.3903 127.158 52.1253 127.765 52.4171C128.041 52.5252 128.791 52.5901 130.007 52.5901V53.7682H119.949V52.5901C120.909 52.5252 121.497 52.4387 121.735 52.3307C122.238 52.0604 122.485 51.4984 122.485 50.6553V29.8917C122.485 27.9029 121.64 26.5843 119.949 25.9465V25.0278C124.328 23.9794 126.635 23.4822 126.863 23.5362V25.9465C128.753 24.336 130.558 23.5362 132.276 23.5362C134.527 23.5362 136.389 24.5738 137.88 26.6491C139.285 28.5947 139.988 30.8753 139.988 33.4802Z" />
  <path
     id="path855"
     fill="white"
     d="M119.437 43.0677H111.07V41.8463C111.991 41.8463 112.447 41.5653 112.447 41.0141C112.447 40.8087 112.2 40.2034 111.706 39.1874L109.151 33.7614L107.309 35.7718V39.3927C107.309 40.4412 107.508 41.1329 107.917 41.4464C108.249 41.7166 108.867 41.8463 109.759 41.8463V43.0677H100.785V41.8463C102.219 41.8463 102.931 41.0681 102.931 39.5224V27.5139C102.931 25.9683 102.219 25.2009 100.785 25.2009V23.9795H109.759V25.2009C108.867 25.2009 108.249 25.3306 107.917 25.59C107.508 25.9143 107.309 26.5952 107.309 27.6437V34.1073C110.737 30.2053 112.447 27.8382 112.447 26.9951C112.447 25.7954 111.953 25.2009 110.956 25.2009V23.9795H118.667V25.2009C117.623 25.2009 116.455 25.8278 115.173 27.0816C114.945 27.3086 114.033 28.357 112.447 30.2269L115.638 37.0797C116.151 38.1605 116.578 39.0144 116.939 39.663C117.585 40.7979 118.145 41.468 118.629 41.6626C118.886 41.7815 119.152 41.8463 119.437 41.8463V43.0677Z" />
  <path
     id="path857"
     fill="white"
     d="M96.1596 34.3992C96.1596 32.0861 95.9412 30.1189 95.5043 28.4868C94.8111 26.0008 93.6904 24.7578 92.1329 24.7578C89.5403 24.7578 88.2487 27.3086 88.2487 32.3887C88.2487 34.7126 88.5051 36.7555 89.0179 38.5173C89.7587 41.0898 90.9363 42.3652 92.5508 42.3652C93.5195 42.3652 94.3647 41.7059 95.0865 40.3764C95.7987 39.0469 96.1596 37.0473 96.1596 34.3992ZM100.842 33.4804C100.842 36.3123 100.025 38.701 98.3819 40.6574C96.7484 42.6138 94.6876 43.5866 92.2089 43.5866C89.6732 43.5866 87.5839 42.657 85.9504 40.7871C84.3075 38.928 83.4907 36.5393 83.4907 33.6533C83.4907 30.8215 84.3359 28.4219 86.0264 26.4764C87.7169 24.52 89.7967 23.5364 92.2849 23.5364C94.7161 23.5364 96.7484 24.4984 98.3819 26.4115C100.025 28.3138 100.842 30.6701 100.842 33.4804Z" />
  <path
     id="path859"
     fill="white"
     d="M83.9751 43.0677H74.991V41.8463C76.425 41.8463 77.1468 41.0681 77.1468 39.5224V28.303L71.5816 43.0677H70.6604L64.364 29.4379V38.2146C64.364 39.4684 64.6584 40.3871 65.2472 40.9708C65.836 41.5545 66.3868 41.8463 66.8996 41.8463V43.0677H60.7551V41.8463C60.9071 41.8463 61.135 41.7707 61.4484 41.6193C62.626 41.0465 63.2148 39.9008 63.2148 38.2146V27.2978C62.5975 25.9034 61.7808 25.2009 60.7551 25.2009V23.9795H66.3868L72.5978 37.6958L77.4792 23.9795H83.9751V25.2009C83.0824 25.2009 82.4651 25.3306 82.1327 25.59C81.7243 25.9143 81.5154 26.5952 81.5154 27.6437V39.3927C81.5154 40.4412 81.7243 41.1329 82.1327 41.4464C82.4651 41.7166 83.0824 41.8463 83.9751 41.8463V43.0677Z" />
  <path
     id="path861"
     fill="white"
     d="M53.357 39.6198V32.5833C51.942 33.4804 50.9353 34.2586 50.337 34.8964C49.3873 35.9772 48.9124 37.1878 48.9124 38.5173C48.9124 39.2198 49.0834 39.8143 49.4348 40.2899C49.7767 40.7763 50.2515 41.0141 50.8498 41.0141C51.6476 41.0141 52.4833 40.5493 53.357 39.6198ZM60.1188 41.5329C58.8652 42.9597 57.6496 43.673 56.472 43.673C54.886 43.673 53.8983 42.8083 53.5185 41.0573C51.752 42.8083 49.9951 43.673 48.2572 43.673C47.1555 43.673 46.2058 43.338 45.4176 42.6462C44.6198 41.9545 44.2305 41.0033 44.2305 39.7819C44.2305 37.8579 45.3986 36.0745 47.7348 34.4424C49.6152 33.3075 51.4861 32.1726 53.357 31.0701V27.7842C53.357 25.763 52.5593 24.7578 50.9638 24.7578C50.4699 24.7578 50.0236 24.8659 49.6057 25.0712C49.0359 25.309 48.751 25.6549 48.751 26.1197C48.751 26.1629 48.8365 26.3791 48.9884 26.7898C49.1404 27.2005 49.2163 27.5356 49.2163 27.795C49.2163 28.5084 48.9789 29.0921 48.5041 29.5352C48.0292 30 47.4784 30.227 46.8326 30.227C46.2723 30.227 45.7975 30.0648 45.4176 29.7406C44.9522 29.3839 44.7243 28.9083 44.7243 28.2814C44.7243 27.7302 44.9142 27.1573 45.3036 26.5736C45.9684 25.5468 47.0036 24.7686 48.4091 24.2498C49.5867 23.7742 50.8308 23.5364 52.1319 23.5364C53.6894 23.5364 54.981 23.9795 56.0066 24.855C57.1653 25.8494 57.7351 27.1897 57.7351 28.8867V40.0089C57.7351 40.8844 57.963 41.3167 58.4284 41.3167C58.6563 41.3167 58.9792 41.0898 59.3876 40.6142L60.1188 41.5329Z" />
  <path
     id="path863"
     fill="white"
     d="M44.2115 36.5175C41.3244 41.2842 37.2503 43.6729 32.008 43.6729C28.0192 43.6729 24.6858 42.1597 22.0077 39.1333C19.3391 36.1068 18 32.3346 18 27.8165C18 23.3093 19.3201 19.483 21.9697 16.3485C24.6194 13.2247 27.9148 11.6575 31.856 11.6575C32.6727 11.6575 33.8694 11.8953 35.4458 12.36C37.0128 12.8248 38.1999 13.0518 38.9977 13.0518C39.9949 13.0518 40.8401 12.6519 41.5239 11.8304H43.0624V21.4826H41.9132C39.4535 15.754 36.3196 12.8789 32.5113 12.8789C30.4125 12.8789 28.6176 13.7219 27.136 15.4081C25.854 16.8889 24.9043 18.8777 24.2965 21.3421C23.8596 23.0931 23.6412 25.0711 23.6412 27.3193C23.6412 29.3838 23.8881 31.2969 24.3724 33.0804C25.0847 35.6637 26.2053 37.7389 27.7059 39.317C29.3963 41.0248 31.3717 41.8895 33.6224 41.8895C37.3072 41.8895 40.4507 39.8574 43.0624 35.815L44.2115 36.5175Z" />
</svg>
