<svg width="152" height="34" viewBox="0 0 152 34" fill="none" xmlns="http://www.w3.org/2000/svg">
<g clip-path="url(#clip0_14_1146)">
<path d="M63.5457 25.1633H50.4859L67.1589 2.82902C67.5222 2.33861 67.4213 1.62342 66.9368 1.25561C66.7552 1.11257 66.5129 1.03084 66.2707 1.03084H42.1494C40.03 1.03084 38.2941 2.78816 38.2941 4.93372C38.2941 7.07929 40.03 8.83661 42.1494 8.83661H52.9889L36.2554 31.1914C35.8718 31.6818 35.9728 32.3765 36.4572 32.7648C36.6591 32.9282 36.9013 33.01 37.1435 32.9895H63.5255C65.645 32.8874 67.28 31.0483 67.1791 28.8823C67.0781 26.8798 65.5037 25.2859 63.5255 25.1838V25.1633H63.5457ZM147.839 1.03084C145.72 1.03084 143.984 2.78816 143.984 4.93372V18.0319L123.153 1.29648C122.688 0.908233 121.982 0.969535 121.598 1.45995C121.437 1.66429 121.356 1.9095 121.356 2.17514V29.0867C121.356 31.2322 123.092 32.9895 125.211 32.9895C127.331 32.9895 129.067 31.2527 129.067 29.0867V15.9885L149.898 32.7443C150.382 33.1326 151.089 33.0508 151.472 32.5604C151.634 32.3561 151.715 32.1109 151.715 31.8657V4.93372C151.694 2.76772 149.979 1.03084 147.839 1.03084ZM92.7133 25.899C83.8924 25.899 77.312 21.1992 77.312 16.9898C77.312 12.7804 83.9126 8.08055 92.7133 8.08055C101.534 8.08055 108.115 12.7804 108.115 16.9898C108.115 21.1992 101.554 25.899 92.7133 25.899ZM92.7133 0.27478C79.9563 0.27478 69.6013 7.75361 69.6013 16.9898C69.6013 26.2259 79.9563 33.7047 92.7133 33.7047C105.47 33.7047 115.825 26.2259 115.825 16.9898C115.825 7.75361 105.47 0.27478 92.7133 0.27478ZM16.8372 25.9194C11.9726 25.9194 8.01628 21.9348 8.01628 17.0102C8.01628 12.0856 11.9524 8.08055 16.817 8.08055C21.6817 8.08055 25.638 12.0652 25.638 16.9898V17.0102C25.638 21.9143 21.7018 25.899 16.8372 25.9194ZM16.8372 0.27478C7.7135 0.27478 0.325727 7.75361 0.305542 16.9898C0.305542 26.2259 7.69332 33.7047 16.817 33.7252C25.9407 33.7252 33.3285 26.2463 33.3487 17.0102V16.9898C33.3285 7.75361 25.9407 0.27478 16.8372 0.27478Z" fill="#005BFF"/>
</g>
<defs>
<clipPath id="clip0_14_1146">
<rect width="152" height="33" fill="white" transform="translate(0 0.5)"/>
</clipPath>
</defs>
</svg>
