<svg width="254" height="30" viewBox="0 0 254 30" fill="none" xmlns="http://www.w3.org/2000/svg">
<g clip-path="url(#clip0_14_1159)">
<path d="M8.06834 29.1826L0.35498 0.765381H5.46247L11.4038 22.5848L17.7621 0.765381H22.5048L28.8631 22.6887L34.8045 0.765381H39.8599L32.1465 29.1826H26.2573L20.0553 7.98658L13.9055 29.1826H8.06834Z" fill="#BE11A5"/>
<path d="M43.4039 0.765381H48.2508V29.1826H43.4039V0.765381Z" fill="#BE11A5"/>
<path d="M58.5179 24.7149H70.2443V29.1827H53.7753V0.817383H58.5179V24.7149Z" fill="#BE11A5"/>
<path d="M85.1499 0.817297C88.8502 0.713395 92.4463 2.21998 95.0001 4.92144C100.264 10.5841 100.264 19.4158 95.0001 25.0785C92.4463 27.7799 88.8502 29.2865 85.1499 29.1826H73.7883V0.817297H85.1499ZM85.1499 24.7148C87.86 24.7148 90.101 23.7797 91.7688 21.9614C93.5408 20.0912 94.4789 17.5456 94.3746 15C94.4789 12.4024 93.5408 9.90875 91.7688 8.03851C90.0489 6.22022 87.6515 5.18119 85.1499 5.2851H78.531V24.7148H85.1499Z" fill="#BE11A5"/>
<path d="M124.394 21.0783C124.446 23.2602 123.508 25.3902 121.892 26.8449C120.225 28.4034 118.036 29.2346 115.743 29.1827H103.391V0.817362H114.857C117.046 0.765411 119.182 1.59663 120.85 3.05126C122.466 4.45394 123.352 6.53199 123.3 8.66198C123.404 10.9478 122.257 13.1298 120.381 14.4286C122.883 15.6754 124.446 18.2729 124.394 21.0783ZM108.134 5.18126V12.6622H114.857C116.941 12.6622 118.609 10.9998 118.609 8.92174C118.609 6.84369 116.941 5.18126 114.857 5.18126H108.134ZM115.743 24.7668C117.932 24.6629 119.651 22.8446 119.547 20.6627C119.495 18.5846 117.775 16.9222 115.743 16.8703H108.134V24.8188L115.743 24.7668Z" fill="#BE11A5"/>
<path d="M133.671 24.7149H146.44V29.1827H128.928V0.817383H146.231V5.28518H133.671V12.6622H145.241V17.0781H133.671V24.7149Z" fill="#BE11A5"/>
<path d="M167.13 29.1826L160.98 18.8444H155.404V29.1826H150.661V0.76538H162.231C164.681 0.713429 167.078 1.7005 168.798 3.46684C170.57 5.12927 171.56 7.46707 171.508 9.90877C171.456 13.5453 169.215 16.8183 165.775 18.117L172.342 29.1826H167.13ZM155.404 5.18122V14.6883H162.179C164.785 14.5844 166.818 12.3505 166.713 9.70097C166.609 7.25927 164.629 5.28513 162.179 5.18122H155.404Z" fill="#BE11A5"/>
<path d="M192.407 29.1826L186.309 18.8444H180.733V29.1826H175.99V0.76538H187.56C190.01 0.713429 192.407 1.7005 194.127 3.46684C195.899 5.12927 196.889 7.46707 196.837 9.90877C196.785 13.5453 194.544 16.8183 191.104 18.117L197.671 29.1826H192.407ZM180.733 5.18122V14.6883H187.508C190.166 14.5324 192.147 12.2985 191.99 9.64901C191.834 7.25926 189.906 5.28513 187.508 5.18122H180.733Z" fill="#BE11A5"/>
<path d="M201.111 0.765381H205.853V29.1826H201.111V0.765381Z" fill="#BE11A5"/>
<path d="M216.173 24.7149H228.941V29.1827H211.43V0.817383H228.733V5.28518H216.173V12.6622H227.743V17.0781H216.173V24.7149Z" fill="#BE11A5"/>
<path d="M232.277 22.7407L236.394 20.4029C237.541 23.6239 239.938 25.1824 243.534 25.1824C247.13 25.1824 248.902 23.6758 248.902 21.4419C248.954 20.4029 248.381 19.3639 247.443 18.8444C246.505 18.2209 244.785 17.5456 242.335 16.8183C239.573 15.987 238.218 15.4675 236.29 14.2207C234.362 12.9739 233.476 11.0517 233.476 8.50608C233.371 6.22023 234.414 3.98633 236.186 2.5317C238.01 1.02512 240.355 0.24585 242.752 0.297801C247.078 0.141948 251.039 2.6356 252.811 6.53193L248.85 8.76583C247.651 6.16828 245.619 4.81755 242.805 4.81755C239.99 4.81755 238.27 6.16828 238.27 8.35022C238.27 10.5322 239.678 11.4153 244.107 12.7661C245.202 13.1297 245.984 13.3895 246.505 13.5973C247.026 13.8051 247.756 14.0648 248.642 14.4285C249.371 14.6883 250.101 15.1039 250.726 15.5714C252.238 16.7663 253.906 18.6885 253.697 21.39C253.801 23.7797 252.759 26.0136 250.883 27.5202C249.007 29.0268 246.557 29.7541 243.482 29.7541C237.801 29.7021 233.736 27.0526 232.277 22.7407Z" fill="#BE11A5"/>
</g>
<defs>
<clipPath id="clip0_14_1159">
<rect width="254" height="29" fill="white" transform="translate(0 0.5)"/>
</clipPath>
</defs>
</svg>
