<svg width="246" height="46" viewBox="0 0 246 46" fill="none" xmlns="http://www.w3.org/2000/svg">
<g clip-path="url(#clip0_14_1149)">
<path d="M115.582 38.9879H120.454L127.263 13.6244V38.9879H132.743V5.46594H125.214L118.405 30.0524L111.596 5.46594H103.902V38.9879H108.607V13.6244L115.582 38.9879ZM155.661 22.3934C155.661 16.4549 152.727 14.2349 146.638 14.2349C142.818 14.2349 139.829 15.4004 138.057 16.4549V21.1724C139.552 20.0069 142.929 18.7859 145.918 18.7859C148.741 18.7859 149.904 19.8404 149.904 22.3379V23.6699H149.018C140.271 23.6699 136.286 26.6114 136.286 31.5509C136.286 36.4904 139.22 39.2654 143.704 39.2654C147.08 39.2654 148.575 38.2109 149.627 37.0454H149.904C149.904 37.6559 150.18 38.5439 150.346 38.9879H155.993C155.827 37.0454 155.716 34.9919 155.716 33.0494C155.661 33.0494 155.661 22.3934 155.661 22.3934ZM149.904 33.2159C149.184 34.2704 147.855 35.1584 145.752 35.1584C143.372 35.1584 142.209 33.6599 142.209 31.6064C142.209 28.7759 144.146 27.7769 149.184 27.7769H150.07V33.2714H149.904V33.2159ZM165.57 14.6789H160.255V45.9809H166.013V36.2129C167.507 38.4329 169.555 39.4874 172.102 39.4874C177.748 39.4874 181.568 35.0474 181.568 26.8889C181.568 18.7304 177.859 14.2904 172.379 14.2904C169.722 14.2904 167.507 15.4559 165.847 17.8424C165.902 17.7869 165.57 14.6789 165.57 14.6789ZM170.496 34.9919C167.563 34.9919 165.902 32.4944 165.902 26.9999C165.902 21.3389 167.507 18.8414 170.773 18.8414C173.873 18.8414 175.479 21.3389 175.479 26.8334C175.479 32.4944 173.873 34.9919 170.496 34.9919ZM199.448 38.9879H205.98L196.791 25.9454L204.929 14.6789H199.172L191.034 25.9454V14.6789H185.277V38.9879H191.034V27.1109L199.448 38.9879ZM225.189 37.3784V32.6609C223.418 33.8264 220.484 34.8809 217.661 34.8809C213.509 34.8809 211.904 32.9384 211.572 28.7759H225.3V25.6679C225.3 17.2319 221.591 14.1239 215.834 14.1239C208.859 14.1239 205.482 19.4519 205.482 26.8889C205.482 35.3249 209.634 39.4874 216.886 39.4874C220.927 39.4319 223.584 38.5439 225.189 37.3784ZM215.889 18.8414C218.713 18.8414 219.598 21.2279 219.598 24.1694V24.6134H211.572C211.738 20.7839 213.232 18.8414 215.889 18.8414ZM245.893 19.2854V14.6789H226.684V19.2854H233.493V38.9879H239.25V19.2854H245.893Z" fill="black"/>
<path d="M69.7465 44.9265C82.0358 44.9265 91.9447 34.992 91.9447 22.671C91.9447 10.35 82.0358 0.415527 69.7465 0.415527C57.4572 0.415527 47.5483 10.35 47.5483 22.671C47.4376 34.992 57.5126 44.9265 69.7465 44.9265Z" fill="#FED42B"/>
<path d="M22.3054 44.9265C34.5651 44.9265 44.5036 34.9624 44.5036 22.671C44.5036 10.3796 34.5651 0.415527 22.3054 0.415527C10.0457 0.415527 0.107178 10.3796 0.107178 22.671C0.107178 34.9624 10.0457 44.9265 22.3054 44.9265Z" fill="#FC3F1D"/>
<path d="M25.5161 12.903H23.3018C19.4821 12.903 17.5446 14.8455 17.5446 17.787C17.5446 21.0615 18.8732 22.671 21.6964 24.6135L23.9107 26.223L17.5446 36.1575H12.3411L18.4303 27.111C14.8875 24.6135 12.95 22.227 12.95 18.0645C12.95 12.8475 16.4929 9.29553 23.3018 9.29553H30.1107V35.991H25.6821V12.8475H25.5161V12.903Z" fill="white"/>
<mask id="mask0_14_1149" style="mask-type:luminance" maskUnits="userSpaceOnUse" x="47" y="0" width="45" height="45">
<path d="M69.7465 44.9265C82.0358 44.9265 91.9447 34.992 91.9447 22.671C91.9447 10.35 82.0358 0.415527 69.7465 0.415527C57.4572 0.415527 47.5483 10.35 47.5483 22.671C47.4376 34.992 57.5126 44.9265 69.7465 44.9265Z" fill="white"/>
</mask>
<g mask="url(#mask0_14_1149)">
<path d="M58.8411 12.6255L39.3 38.2665L44.5036 44.205L59.0072 24.9465L57.5125 35.4915L65.65 38.322L75.559 22.449C75.1161 25.3905 74.3965 32.217 80.8733 34.326C91.059 37.434 99.9715 19.0635 104.068 9.73946L98.1447 6.63147C93.5501 16.2885 86.4643 26.9445 83.6411 26.223C80.8179 25.5015 83.3643 16.455 84.9697 10.6275V10.461L75.9465 7.35297L65.1518 25.002L66.6465 15.345L58.8411 12.6255Z" fill="black"/>
</g>
</g>
<defs>
<clipPath id="clip0_14_1149">
<rect width="246" height="46" fill="white"/>
</clipPath>
</defs>
</svg>
