<svg
   xmlns="http://www.w3.org/2000/svg"
   fill="none"
   viewBox="0 0 24 24"
   height="24"
   width="24">
  <path
     d="M 3.5 4 A 0.50005 0.50005 0 1 0 3.5 5 L 5.0585938 5 C 5.4064537 5 5.6568582 5.0013202 5.8164062 5.0195312 C 5.9759544 5.0377472 6.0265082 5.06077 6.0722656 5.09375 C 6.1180226 5.12673 6.1549217 5.166899 6.2226562 5.3125 C 6.2903912 5.4581008 6.3724164 5.6953842 6.4824219 6.0253906 L 6.9003906 7.2851562 C 6.5762948 7.418165 6.296423 7.6088449 6.1054688 7.8984375 C 5.7857209 8.3833487 5.7896561 8.979916 5.953125 9.5996094 C 6.1165939 10.219303 6.4272866 10.934477 6.8320312 11.878906 L 7.0019531 12.273438 C 7.376974 13.148476 7.6242558 13.759006 8 14.195312 C 7.3951482 14.443684 6.8942898 14.91521 6.6347656 15.537109 C 6.5959326 15.630079 6.5669516 15.717103 6.515625 15.871094 C 6.46941 16.009749 6.4417239 16.085233 6.4199219 16.1875 C 6.2364799 17.047031 6.847247 17.892422 7.7207031 17.990234 C 7.8243664 18.001782 7.9045813 18 8.0507812 18 L 17.5 18 A 0.50005 0.50005 0 1 0 17.5 17 L 8.0507812 17 C 7.9045813 17 7.8392878 16.996894 7.8320312 16.996094 C 7.5303075 16.962304 7.3350795 16.693353 7.3984375 16.396484 C 7.3999175 16.389584 7.4185988 16.326244 7.4648438 16.1875 C 7.5161767 16.033491 7.5387536 15.964701 7.5566406 15.921875 C 7.7747528 15.399205 8.2672564 15.045529 8.8320312 15.003906 C 8.8785687 15.000483 8.9490181 15 9.1113281 15 L 14.5 15 A 0.50005 0.50005 0 0 0 14.613281 14.988281 C 15.45564 14.985539 16.072004 14.964891 16.59375 14.662109 C 17.2116 14.303555 17.523954 13.715693 18.085938 12.732422 L 18.369141 12.236328 C 18.939438 11.238278 19.375772 10.484342 19.630859 9.8300781 C 19.885946 9.175814 19.95763 8.5355753 19.644531 7.9960938 C 19.331445 7.4566337 18.739532 7.2027476 18.044922 7.0996094 C 17.350311 6.9964711 16.479578 7 15.330078 7 L 10.048828 7 C 9.1523249 7 8.4695053 7.0087475 7.8828125 7.0703125 L 7.4296875 5.7089844 C 7.319683 5.3789808 7.2366467 5.1222217 7.1289062 4.890625 C 7.0211659 4.6590283 6.8723834 4.4389836 6.65625 4.2832031 C 6.4401175 4.1274233 6.183472 4.0563181 5.9296875 4.0273438 C 5.675903 3.9983693 5.4064536 4 5.0585938 4 L 3.5 4 z M 10.048828 8 L 15.330078 8 C 16.479578 8 17.335148 8.0042496 17.898438 8.0878906 C 18.461727 8.1715296 18.658783 8.2903968 18.779297 8.4980469 C 18.899798 8.7056753 18.906084 8.936221 18.699219 9.4667969 C 18.492356 9.9973728 18.072256 10.742174 17.501953 11.740234 L 17.216797 12.236328 C 16.654781 13.219657 16.405147 13.61503 16.091797 13.796875 C 15.778427 13.978733 15.310334 14 14.177734 14 L 11.136719 14 C 9.8574785 14 9.3298358 13.974585 8.9921875 13.751953 C 8.6545549 13.529332 8.4238428 13.054708 7.9199219 11.878906 L 7.7519531 11.484375 C 7.3472077 10.539944 7.050048 9.8389973 6.9199219 9.3457031 C 6.7897958 8.852409 6.8145909 8.6385775 6.9394531 8.4492188 C 7.0643088 8.2598683 7.2511996 8.1528355 7.7558594 8.078125 C 8.2605192 8.0034145 9.0213482 8 10.048828 8 z M 9 19 A 1 1 0 0 0 8 20 A 1 1 0 0 0 9 21 A 1 1 0 0 0 10 20 A 1 1 0 0 0 9 19 z M 17 19 A 1 1 0 0 0 16 20 A 1 1 0 0 0 17 21 A 1 1 0 0 0 18 20 A 1 1 0 0 0 17 19 z "
     fill="currentColor" />
</svg>
