<svg xmlns="http://www.w3.org/2000/svg" fill="none" viewBox="0 0 24 24" height="24" width="24">
  <path fill="currentColor" d="M 12 2.5 C 6.75329 2.5 2.5 6.75329 2.5 12 C 2.5 17.2467 6.75329 21.5 12 21.5 C 17.2467 21.5 21.5 17.2467 21.5 12 C 21.5 6.75329 17.2467 2.5 12 2.5 z M 12 3.5 C 16.6944 3.5 20.5 7.30558 20.5 12 C 20.5 16.6944 16.6944 20.5 12 20.5 C 7.30558 20.5 3.5 16.6944 3.5 12 C 3.5 7.30558 7.30558 3.5 12 3.5 z M 15.615234 8.6796875 L 10.966797 14.259766 L 8.3535156 11.646484 L 7.6464844 12.353516 L 11.033203 15.740234 L 16.384766 9.3203125 L 15.615234 8.6796875 z " />
</svg>
