<svg width="24" height="24" viewBox="0 0 24 24" fill="none"
  xmlns="http://www.w3.org/2000/svg">
  <path fill-rule="evenodd" clip-rule="evenodd" d="M12 3.5C7.30558 3.5 3.5 7.30558 3.5 12C3.5 16.6944 7.30558 20.5 12 20.5C16.6944 20.5 20.5 16.6944 20.5 12C20.5 7.30558 16.6944 3.5 12 3.5ZM2.5 12C2.5 6.75329 6.75329 2.5 12 2.5C17.2467 2.5 21.5 6.75329 21.5 12C21.5 17.2467 17.2467 21.5 12 21.5C6.75329 21.5 2.5 17.2467 2.5 12Z" fill="currentColor"/>
  <path fill-rule="evenodd" clip-rule="evenodd" d="M15.3537 9.35322L9.35365 15.3532L8.64655 14.6461L14.6465 8.64612L15.3537 9.35322Z" fill="currentColor"/>
  <path fill-rule="evenodd" clip-rule="evenodd" d="M8.64644 9.35356L14.6464 15.3536L15.3535 14.6465L9.35355 8.64645L8.64644 9.35356Z" fill="currentColor"/>
</svg>
