<svg
   xmlns="http://www.w3.org/2000/svg"
   fill="none"
   viewBox="0 0 24 24"
   height="24"
   width="24">
  <path
     d="M 9.3007812 5 C 8.4689512 5 7.8144025 5.0000487 7.2890625 5.0429688 C 6.7578825 5.0863688 6.3132562 5.1754694 5.9101562 5.3808594 C 5.2515962 5.7164094 4.7164094 6.2515962 4.3808594 6.9101562 C 4.1754694 7.3132562 4.0863687 7.7578825 4.0429688 8.2890625 C 4.0000487 8.8144025 4 9.4689512 4 10.300781 L 4 11.5 L 4 16.5 L 4 18.414062 C 4 19.260463 5.0226337 19.684338 5.6210938 19.085938 L 7.5605469 17.146484 C 7.6543169 17.052784 7.7814625 17 7.9140625 17 L 14.699219 17 C 15.531019 17 16.185637 16.999931 16.710938 16.957031 C 17.242138 16.913631 17.686744 16.824541 18.089844 16.619141 C 18.748344 16.283641 19.283641 15.748344 19.619141 15.089844 C 19.824541 14.686744 19.913631 14.242138 19.957031 13.710938 C 19.999931 13.185638 20 12.531019 20 11.699219 L 20 10.300781 C 20 9.4689512 19.999931 8.8144025 19.957031 8.2890625 C 19.913631 7.7578825 19.824541 7.3132562 19.619141 6.9101562 C 19.283641 6.2515962 18.748344 5.7164094 18.089844 5.3808594 C 17.686744 5.1754694 17.242137 5.0863687 16.710938 5.0429688 C 16.185638 5.0000487 15.531019 5 14.699219 5 L 9.3007812 5 z M 9.3007812 6 L 14.699219 6 C 15.547519 6 16.153706 6.0002425 16.628906 6.0390625 C 17.098206 6.0774125 17.396066 6.1518475 17.634766 6.2734375 C 18.105166 6.5131275 18.486862 6.8948344 18.726562 7.3652344 C 18.848163 7.6038744 18.922537 7.9017637 18.960938 8.3710938 C 18.999738 8.8462638 19 9.4524512 19 10.300781 L 19 11.699219 C 19 12.547519 18.999738 13.153706 18.960938 13.628906 C 18.922538 14.098206 18.848163 14.396066 18.726562 14.634766 C 18.486863 15.105166 18.105166 15.486862 17.634766 15.726562 C 17.396066 15.848163 17.098206 15.922537 16.628906 15.960938 C 16.153706 15.999737 15.547519 16 14.699219 16 L 7.9140625 16 C 7.5162425 16 7.1348256 16.158153 6.8535156 16.439453 L 5 18.292969 L 5 16.5 L 5 11.5 L 5 10.300781 C 5 9.4524512 5.0002425 8.8462638 5.0390625 8.3710938 C 5.0774125 7.9017638 5.1518475 7.6038744 5.2734375 7.3652344 C 5.5131275 6.8948344 5.8948344 6.5131275 6.3652344 6.2734375 C 6.6038744 6.1518475 6.9017637 6.0774125 7.3710938 6.0390625 C 7.8462637 6.0002425 8.4524513 6 9.3007812 6 z M 8.5 9 A 0.50005 0.50005 0 1 0 8.5 10 L 15.5 10 A 0.50005 0.50005 0 1 0 15.5 9 L 8.5 9 z M 8.5 12 A 0.50005 0.50005 0 1 0 8.5 13 L 13.5 13 A 0.50005 0.50005 0 1 0 13.5 12 L 8.5 12 z "
     fill="currentColor" />
</svg>
