<svg width="24" height="24" viewBox="0 0 24 24" fill="none"
  xmlns="http://www.w3.org/2000/svg">
  <path fill-rule="evenodd" clip-rule="evenodd" d="M5 4C5 3.44771 5.44772 3 6 3H18C18.5523 3 19 3.44772 19 4V6.45209C19 7.27246 18.5975 8.04062 17.923 8.50757L12.8784 12L17.923 15.4924C18.5975 15.9594 19 16.7275 19 17.5479V20C19 20.5523 18.5523 21 18 21H6C5.44772 21 5 20.5523 5 20V17.5479C5 16.7275 5.40248 15.9594 6.07697 15.4924L11.1216 12L6.07698 8.50757C5.40248 8.04062 5 7.27246 5 6.45209V4ZM12 11.3919L17.3538 7.68538C17.7585 7.40521 18 6.94431 18 6.45209V4H6V6.45209C6 6.94431 6.24149 7.40521 6.64619 7.68538L12 11.3919ZM12 12.6081L6.64618 16.3146C6.24149 16.5948 6 17.0557 6 17.5479V20H18V17.5479C18 17.0557 17.7585 16.5948 17.3538 16.3146L12 12.6081Z" fill="currentColor"/>
  <path fill-rule="evenodd" clip-rule="evenodd" d="M11.6775 16.1084C11.8773 15.9942 12.1227 15.9942 12.3225 16.1084L14.9923 17.634C15.6154 17.9901 16 18.6528 16 19.3705V20.5C16 20.7761 15.7761 21 15.5 21C15.2239 21 15 20.7761 15 20.5V19.3705C15 19.0116 14.8077 18.6803 14.4961 18.5022L12 17.0759L9.50386 18.5022C9.19229 18.6803 9 19.0116 9 19.3705V20.5C9 20.7761 8.77614 21 8.5 21C8.22386 21 8 20.7761 8 20.5V19.3705C8 18.6528 8.38457 17.9901 9.00772 17.634L11.6775 16.1084Z" fill="currentColor"/>
</svg>
