<svg
   xmlns="http://www.w3.org/2000/svg"
   fill="none"
   viewBox="0 0 24 24"
   height="24"
   width="24">
  <path
     d="M 12.228516 1.5019531 C 11.54212 1.4873553 10.854759 1.5404361 10.175781 1.6601562 C 8.8178753 1.8995971 7.5203561 2.4036537 6.3574219 3.1445312 C 5.1945003 3.8853971 4.1893266 4.8470494 3.3984375 5.9765625 C 2.6075487 7.1060647 2.0464873 8.3803726 1.7480469 9.7265625 C 1.4496074 11.072748 1.4207162 12.466263 1.6601562 13.824219 C 1.8995974 15.182179 2.403665 16.47962 3.1445312 17.642578 C 3.8854013 18.805559 4.8470498 19.810705 5.9765625 20.601562 C 7.1060868 21.39254 8.3804102 21.953447 9.7265625 22.251953 C 11.072748 22.550361 12.466279 22.57924 13.824219 22.339844 C 15.182052 22.100344 16.479603 21.596346 17.642578 20.855469 C 18.805551 20.114593 19.810704 19.152921 20.601562 18.023438 C 21.392526 16.89385 21.953447 15.619602 22.251953 14.273438 C 22.550361 12.927242 22.57924 11.533721 22.339844 10.175781 C 22.100345 8.8178993 21.59635 7.5203615 20.855469 6.3574219 C 20.114597 5.194508 19.152921 4.189328 18.023438 3.3984375 C 16.893873 2.6075641 15.61964 2.046488 14.273438 1.7480469 C 13.60034 1.5988273 12.914911 1.5165509 12.228516 1.5019531 z M 12.207031 2.5019531 C 12.827958 2.5153 13.447638 2.589599 14.056641 2.7246094 C 15.274637 2.9946283 16.427183 3.5031634 17.449219 4.21875 C 18.471135 4.9343195 19.34139 5.8442983 20.011719 6.8964844 C 20.682038 7.9486648 21.138769 9.1209929 21.355469 10.349609 C 21.572073 11.57827 21.545385 12.838636 21.275391 14.056641 C 21.005297 15.274675 20.496888 16.427205 19.78125 17.449219 C 19.065709 18.471135 18.155742 19.341394 17.103516 20.011719 C 16.051291 20.682042 14.878958 21.138769 13.650391 21.355469 C 12.42173 21.572073 11.161353 21.545385 9.9433594 21.275391 C 8.7253336 21.005298 7.572697 20.496872 6.5507812 19.78125 C 5.528834 19.065707 4.6585913 18.155735 3.9882812 17.103516 C 3.3179475 16.051274 2.8611703 14.879031 2.6445312 13.650391 C 2.4278917 12.421746 2.4545888 11.161354 2.7246094 9.9433594 C 2.9946289 8.7253692 3.5031788 7.5727191 4.21875 6.5507812 C 4.9343209 5.5288343 5.8443059 4.6585955 6.8964844 3.9882812 C 7.9486702 3.3179589 9.1210159 2.8611704 10.349609 2.6445312 C 10.963932 2.5362114 11.586105 2.4886063 12.207031 2.5019531 z M 11.5 5.5 L 11.5 6 L 11.5 7 L 11.5 7.5 L 12.5 7.5 L 12.5 7 L 12.5 6 L 12.5 5.5 L 11.5 5.5 z M 11.5 11.5 L 11.5 12 L 11.5 18 L 11.5 18.5 L 12.5 18.5 L 12.5 18 L 12.5 12 L 12.5 11.5 L 11.5 11.5 z "
     fill="currentColor" />
</svg>
