<svg xmlns="http://www.w3.org/2000/svg" viewBox="0 0 24 24" height="24" width="24">
  <path d="m 12.000002,7.689453 c -1.229,0 -2.297562,0.465416 -3.414062,1.228516 -1.0808,0.7387 -2.305077,1.827459 -3.8417974,3.193359 l -0.052734,0.04687 -2.3554687,2.09375 c -0.41279,0.3669 -0.4509044,0.999409 -0.083984,1.412109 0.36692,0.4128 0.9993294,0.450885 1.4121094,0.08398 L 6.021487,13.652334 c 1.6007,-1.4228 2.73026,-2.425785 3.69336,-3.083985 0.9397,-0.6422 1.613256,-0.878906 2.285156,-0.878906 0.672,0 1.345556,0.236706 2.285156,0.878906 0.2036,0.1391 0.415219,0.294144 0.636719,0.464844 0.4457,-0.3777 0.948703,-0.81979 1.533203,-1.337891 -0.3639,-0.290699 -0.709215,-0.550543 -1.041016,-0.777343 -1.1165,-0.76309 -2.184963,-1.228506 -3.414063,-1.228506 z m -9.0585938,0.3125 c -0.25548,0.01502 -0.5059931,0.127634 -0.6894531,0.333985 -0.36692,0.4128 -0.3288056,1.045209 0.083984,1.412109 l 1.4042969,1.248047 0.068359,-0.06055 c 0.50214,-0.4464 0.9835193,-0.873938 1.4433593,-1.273438 L 3.6640645,8.251953 c -0.20639,-0.18345 -0.4671762,-0.265025 -0.7226563,-0.25 z m 18.1171878,0 c -0.255488,-0.01502 -0.516257,0.06655 -0.722656,0.25 l -2.357422,2.095703 c -1.6007,1.4228 -2.73026,2.425785 -3.69336,3.083985 -0.9396,0.6422 -1.613156,0.878906 -2.285156,0.878906 -0.6719,0 -1.345456,-0.236706 -2.285156,-0.878906 -0.2036,-0.1391 -0.413366,-0.294144 -0.634766,-0.464844 -0.4458,0.3777 -0.950656,0.81969 -1.535156,1.337891 0.3639,0.2907 0.709215,0.550543 1.041016,0.777343 1.1165,0.7631 2.185062,1.228516 3.414062,1.228516 1.2291,0 2.297563,-0.465416 3.414062,-1.228516 1.0808,-0.7387 2.305197,-1.827459 3.841797,-3.193359 l 0.05273,-0.04687 2.355468,-2.09375 c 0.412801,-0.3669 0.450885,-0.999309 0.08398,-1.412109 -0.18345,-0.206351 -0.433966,-0.31896 -0.689453,-0.333985 z m -0.798828,5.001953 -0.06836,0.06055 c -0.5021,0.4464 -0.983559,0.871985 -1.443359,1.271485 l 1.587891,1.412109 c 0.4128,0.3669 1.045209,0.328815 1.412109,-0.08398 0.3669,-0.4127 0.328816,-1.045209 -0.08398,-1.412109 z" fill="currentColor" />
</svg>
