<svg width="24" height="24" viewBox="0 0 24 24" fill="none"
  xmlns="http://www.w3.org/2000/svg">
  <path fill-rule="evenodd" clip-rule="evenodd" d="M18.3904 6.68765L17.6096 7.31235L20.9597 11.5H13C12.7239 11.5 12.5 11.7239 12.5 12C12.5 12.2761 12.7239 12.5 13 12.5H20.9597L17.6096 16.6877L18.3904 17.3123L22.6403 12L18.3904 6.68765Z" fill="currentColor"/>
  <path fill-rule="evenodd" clip-rule="evenodd" d="M5.19322 3.16849C6.09282 3.19023 7.26757 3.38481 8.90419 3.65758L10.5754 3.93611C11.3862 4.07125 11.9485 4.16589 12.37 4.29137C12.7781 4.41288 12.9941 4.54704 13.1445 4.72467C13.295 4.90231 13.3919 5.13733 13.4446 5.55986C13.4991 5.99625 13.5 6.56648 13.5 7.38849V8.13191H14.5L14.5 7.3555C14.5 6.57436 14.5 5.94153 14.4369 5.43597C14.3712 4.90947 14.231 4.46015 13.9075 4.0783C13.5841 3.69644 13.1639 3.48435 12.6554 3.33295C12.1671 3.18757 11.5429 3.08355 10.7723 2.95514L9.02785 2.66439C7.44083 2.39988 6.19619 2.19243 5.21738 2.16878C4.21624 2.1446 3.40138 2.30856 2.73769 2.87079C2.07399 3.43303 1.7783 4.20984 1.63757 5.20133C1.49998 6.17071 1.49999 7.43253 1.5 9.04145V14.9585C1.49999 16.5674 1.49998 17.8292 1.63757 18.7986C1.7783 19.7901 2.07399 20.5669 2.73769 21.1292C3.40138 21.6914 4.21624 21.8554 5.21738 21.8312C6.19619 21.8075 7.44084 21.6001 9.02787 21.3356L10.7724 21.0448C11.5429 20.9164 12.1671 20.8124 12.6554 20.667C13.1639 20.5156 13.5841 20.3035 13.9075 19.9217C14.231 19.5398 14.3712 19.0905 14.4369 18.564C14.5 18.0584 14.5 17.4256 14.5 16.6445L14.5 16.0659H13.5V16.6115C13.5 17.4335 13.4991 18.0037 13.4446 18.4401C13.3919 18.8626 13.295 19.0977 13.1445 19.2753C12.9941 19.4529 12.7781 19.5871 12.37 19.7086C11.9485 19.8341 11.3862 19.9287 10.5754 20.0639L8.90419 20.3424C7.26757 20.6152 6.09282 20.8097 5.19322 20.8315C4.3076 20.8529 3.78124 20.7026 3.38406 20.3661C2.98688 20.0297 2.75214 19.5352 2.62765 18.6581C2.50119 17.7672 2.5 16.5764 2.5 14.9172V9.08274C2.5 7.42355 2.50119 6.23279 2.62765 5.34186C2.75214 4.46477 2.98688 3.97027 3.38406 3.63381C3.78124 3.29735 4.3076 3.14709 5.19322 3.16849Z" fill="currentColor"/>
</svg>
