<svg xmlns="http://www.w3.org/2000/svg" version="1.1" viewBox="0 0 18 18" height="18" width="18">
  <path d="M 8 0 C 4.22876 0 2.343455 0.000305 1.171875 1.171875 C 0.000305 2.343455 0 4.22876 0 8 L 0 10 C 0 13.7712 0.000305 15.656625 1.171875 16.828125 C 2.343455 17.999725 4.22876 18 8 18 L 10 18 C 13.7712 18 15.656625 17.999725 16.828125 16.828125 C 17.999725 15.656625 18 13.7712 18 10 L 18 8 C 18 4.22876 17.999725 2.343455 16.828125 1.171875 C 15.656625 0.000305 13.7712 0 10 0 L 8 0 z M 8 1 L 10 1 C 11.9139 1 13.248759 1.0013087 14.255859 1.1367188 C 15.234259 1.2682587 15.752094 1.5098863 16.121094 1.8789062 C 16.490094 2.2479262 16.731681 2.7657706 16.863281 3.7441406 C 16.998681 4.7512706 17 6.08611 17 8 L 17 10 C 17 11.9139 16.998681 13.248759 16.863281 14.255859 C 16.731681 15.234259 16.490094 15.752094 16.121094 16.121094 C 15.752094 16.490094 15.234259 16.731681 14.255859 16.863281 C 13.248759 16.998681 11.9139 17 10 17 L 8 17 C 6.08611 17 4.7512706 16.998681 3.7441406 16.863281 C 2.7657706 16.731681 2.2479262 16.490094 1.8789062 16.121094 C 1.5098863 15.752094 1.2682587 15.234259 1.1367188 14.255859 C 1.0013087 13.248759 1 11.9139 1 10 L 1 8 C 1 6.08611 1.0013087 4.7512706 1.1367188 3.7441406 C 1.2682587 2.7657706 1.5098863 2.2479262 1.8789062 1.8789062 C 2.2479262 1.5098863 2.7657706 1.2682587 3.7441406 1.1367188 C 4.7512706 1.0013087 6.08611 1 8 1 z M 5 8.5 L 5 9.5 L 13 9.5 L 13 8.5 L 5 8.5 z " fill="currentColor" />
</svg>
