<svg xmlns="http://www.w3.org/2000/svg" viewBox="0 0 24 24" height="24" width="24">
  <path d="m 13.966455,16.2904 c 0.9864,-0.2321 1.9439,-0.6093 2.8143,-1.1605 0.6673,-0.4063 0.8704,-1.3056 0.4352,-1.973 -0.4061,-0.6673 -1.3056,-0.8704 -1.9729,-0.4352 -1.973,1.2476 -4.5551,1.2476 -6.5280005,0 -0.6673,-0.4061 -1.5377,-0.2321 -1.9729,0.4352 -0.3772,0.6674 -0.1741,1.5378 0.4932,1.9439 0.8704,0.5513 1.8278,0.9284 2.8143005,1.1605 l -2.6982005,2.6983 c -0.5513,0.5513 -0.5513,1.4507 0,2.002 0.2901,0.2901 0.6383,0.4061 1.0154,0.4061 0.3772,0 0.7254,-0.145 1.0155,-0.4061 l 2.6692005,-2.6693 2.6693,2.6693 c 0.5512,0.5512 1.4507,0.5512 2.0019,0 0.5512,-0.5513 0.5512,-1.4507 0,-2.002 z m -1.944,-3.9749 c 2.6694,0 4.8454,-2.176 4.8454,-4.8452 0,-2.66929 -2.176,-4.8453 -4.8454,-4.8453 -2.6982005,0 -4.8742005,2.17601 -4.8742005,4.8453 0,2.6692 2.176,4.8452 4.8742005,4.8452 z m 0,-6.84718 c 1.1026,0 2.002,0.89938 2.002,2.00198 0,1.1025 -0.8994,2.0018 -2.002,2.0018 -1.1024,0 -2.0018,-0.8993 -2.0018,-2.0018 -0.029101,-1.1026 0.8704,-2.00198 2.0018,-2.00198 z" fil="currentColor" />
</svg>
