<svg xmlns="http://www.w3.org/2000/svg" viewBox="0 0 17.276539 16.719799" height="16.719799" width="17.276539">
  <path fill="currentColor" d="m 8.2222741,0.043755 c 0.2742,-0.05834 0.5577,-0.05834 0.832,0 0.7298,0.1552 1.1277999,0.75766 1.3671999,1.19678 0.2542,0.46636 0.5132,1.11212 0.8139,1.86199 l 0.0237,0.05901 c 0.1888,0.47061 0.3081,0.76592 0.4187,0.98556 0.1026,0.20396 0.1671,0.27816 0.214,0.32071 0.0479,0.04342 0.0999,0.08208 0.1553,0.11546 0.0534,0.03218 0.1434,0.07285 0.3715,0.1128 0.2447,0.04287 0.5656,0.07243 1.075,0.11805 l 0.065,0.00582 c 0.7787,0.06969 1.4558,0.13029 1.9658,0.24027 0.4913,0.10594 1.1679,0.32121 1.5195,0.97772 0.1055,0.19705 0.1773,0.41041 0.2123,0.63121 0.1161,0.733 -0.2878,1.3109 -0.6144,1.6921 -0.3371,0.3935 -0.8357,0.847 -1.4076,1.3672 l -0.3891,0.3541 c -0.6315,0.5745 -0.7449,0.6984 -0.8081,0.8225 -0.0498,0.0977 -0.0832,0.2028 -0.0988,0.3113 -0.0198,0.1379 0.0014,0.3045 0.1863,1.138 l 0.0699,0.3148 c 0.1422,0.6409 0.2626,1.1837 0.3201,1.6065 0.0515,0.3789 0.1025,0.9408 -0.1712,1.4266 -0.3377,0.5994 -0.9598,0.9831 -1.647,1.0159 -0.557,0.0266 -1.0363,-0.2712 -1.3517,-0.4872 -0.3521,-0.2411 -0.783,-0.5923 -1.2919,-1.007 l -0.0353,-0.0288 c -0.3662999,-0.2985 -0.6000999,-0.4882 -0.7900999,-0.6212 -0.1799,-0.1259 -0.2642,-0.1597 -0.3134,-0.1738 -0.1801,-0.0517 -0.3711,-0.0517 -0.5512,0 -0.0492,0.0141 -0.1335,0.0479 -0.3134,0.1738 -0.19,0.133 -0.4238,0.3227 -0.7901,0.6212 l -0.0353,0.0288 c -0.5089,0.4147 -0.93987,0.7659 -1.29188,1.007 -0.31548,0.216 -0.79476,0.5138 -1.35171,0.4872 -0.68719,-0.0328 -1.30929,-0.4165 -1.64702,-1.0159 -0.27372,-0.4858 -0.22272,-1.0477 -0.17122,-1.4266 0.05747,-0.4228 0.17791,-0.9656 0.32013,-1.6065 l 0.06986,-0.3148 c 0.18492,-0.8335 0.20616,-1.0001 0.18629,-1.138 -0.01563,-0.1085 -0.04898,-0.2136 -0.09873,-0.3113 -0.06325,-0.1241 -0.17661,-0.248 -0.80811,-0.8225 l -0.34067,-0.31 c -0.0162,-0.0147 -0.03235,-0.0294 -0.04843,-0.044 -0.57192,-0.5203 -1.07050005,-0.9738 -1.40761005,-1.3673 -0.3266,-0.3812 -0.73056,-0.9591 -0.61439,-1.6921 0.03499,-0.2208 0.10675,-0.43415 0.21229,-0.63122 0.35161,-0.6565 1.02818005,-0.87177 1.51947005,-0.97771 0.51002,-0.10998 1.18711,-0.17058 1.96582,-0.24027 0.02158,-0.00193 0.04324,-0.00387 0.06498,-0.00582 0.50941,-0.04562 0.83025,-0.07518 1.07501,-0.11805 0.22806,-0.03995 0.3181,-0.08062 0.3715,-0.1128 0.05537,-0.03338 0.10738,-0.07204 0.15529,-0.11546 0.04695,-0.04255 0.11142,-0.11675 0.21405,-0.32071 0.11052,-0.21964 0.22987,-0.51495 0.41864,-0.98556 0.00792,-0.01974 0.01582,-0.03942 0.02368,-0.05903 0.30074,-0.74986 0.55973,-1.39562 0.81396,-1.86197 0.2394,-0.43912 0.6374,-1.04158 1.3672,-1.19678 z" />
</svg>
