<svg xmlns="http://www.w3.org/2000/svg" viewBox="0 0 24 24" height="24" width="24">
  <path fill="currentColor" d="m 13.691896,7.3775163 c -1.433,0.596 -4.2969997,1.8297 -8.5919797,3.7008997 -0.69744,0.2773 -1.06278,0.5487 -1.09604,0.814 -0.05621,0.4483 0.50527,0.6249 1.26986,0.8653 0.104,0.0327 0.21176,0.0666 0.32224,0.1025 0.75224,0.2445 1.76412,0.5306 2.29022,0.542 0.4771,0.0103 1.0097,-0.1864 1.5977,-0.5902 4.0128997,-2.7088 6.0843997,-4.0779997 6.2143997,-4.1074997 0.0918,-0.0208 0.2189,-0.047 0.3051,0.0295 0.0861,0.0766 0.0777,0.2216 0.0685,0.2605 -0.0556,0.2371 -2.2596,2.2861997 -3.4002,3.3465997 -0.3556,0.3305 -0.6078,0.565 -0.6593,0.6186 -0.1155,0.12 -0.2333,0.2334 -0.3464,0.3425 -0.6988,0.6737 -1.2229,1.1789 0.029,2.0039 0.6017,0.3965 1.0831,0.7243 1.5634,1.0514 0.5245,0.3572 1.0476,0.7135 1.7245,1.1572 0.1725,0.113 0.3372,0.2304 0.4976,0.3448 0.6104,0.4352 1.1588,0.8261 1.8363,0.7638 0.3937,-0.0362 0.8004,-0.4064 1.0069,-1.5105 0.4881,-2.6092 1.4475,-8.2625997 1.6692,-10.5921997 0.0194,-0.2041 -0.005,-0.4654 -0.0246,-0.58 -0.0197,-0.1147 -0.0607,-0.2781 -0.2097,-0.399 -0.1766,-0.1432 -0.4491,-0.17345 -0.5709,-0.1714 -0.5542,0.0099 -1.4043,0.3055 -5.4958,2.0073 z" />
</svg>
