<svg
   xmlns="http://www.w3.org/2000/svg"
   fill="none"
   viewBox="0 0 16 16"
   height="16"
   width="16">
  <path
     d="M 8 2.1660156 C 6.2570187 2.1660156 4.8339844 3.5910031 4.8339844 5.3339844 C 4.8339844 7.0769657 6.2570187 8.5 8 8.5 C 9.7429813 8.5 11.166016 7.0769657 11.166016 5.3339844 C 11.166016 3.5910031 9.7429813 2.1660156 8 2.1660156 z M 8 3.1660156 C 9.2025412 3.1660156 10.166016 4.1314432 10.166016 5.3339844 C 10.166016 6.5365255 9.2025412 7.5 8 7.5 C 6.7974588 7.5 5.8339844 6.5365255 5.8339844 5.3339844 C 5.8339844 4.1314432 6.7974588 3.1660156 8 3.1660156 z M 8 10.166016 C 6.743472 10.166016 5.5206836 10.475439 4.5039062 11.060547 C 3.487178 11.645742 2.7277093 12.481014 2.3769531 13.462891 A 0.50069467 0.50069467 0 0 0 3.3203125 13.798828 C 3.5772764 13.079505 4.1558214 12.412786 5.0019531 11.925781 C 5.8480558 11.438889 6.908428 11.166016 8 11.166016 C 9.091572 11.166016 10.151996 11.438898 10.998047 11.925781 C 11.844154 12.412788 12.424639 13.079494 12.681641 13.798828 A 0.50005 0.50005 0 1 0 13.623047 13.462891 C 13.272248 12.481024 12.512787 11.64574 11.496094 11.060547 C 10.479345 10.47543 9.256528 10.166016 8 10.166016 z "
     fill="currentColor" />
</svg>
