<svg xmlns="http://www.w3.org/2000/svg" viewBox="0 0 24 24" height="24" width="24">
  <path fill="currentColor" d="m 12.512,15.5253 c -3.648,0 -5.728,-2.496 -5.8133,-6.656 h 1.8346 c 0.0587,3.0507 1.4027,4.3413 2.4694,4.608 v -4.608 h 1.7226 v 2.6293 c 1.0507,-0.1119 2.16,-1.312 2.5334,-2.6346 h 1.7173 c -0.14,0.6847 -0.4197,1.3331 -0.8217,1.9048 -0.4019,0.5717 -0.9174,1.0544 -1.5143,1.4178 0.6661,0.3316 1.2543,0.8006 1.726,1.376 0.4716,0.5755 0.8158,1.2445 1.01,1.9627 H 15.4827 C 15.0773,14.2613 14.064,13.28 12.7253,13.1467 v 2.3786 z M 5.12,5.12 C 4,6.2507 4,8.0587 4,11.68 v 0.64 c 0,3.616 0,5.424 1.12,6.56 C 6.2507,20 8.0587,20 11.68,20 h 0.64 c 3.616,0 5.424,0 6.56,-1.12 C 20,17.7493 20,15.9413 20,12.32 V 11.68 C 20,8.064 20,6.256 18.88,5.12 17.7493,4 15.9413,4 12.32,4 H 11.68 C 8.064,4 6.256,4 5.12,5.12 Z" />
</svg>
